<svg width="109" height="19" viewBox="0 0 109 19" fill="none" xmlns="http://www.w3.org/2000/svg">
<path d="M10.15 13.908V9.778C10.15 9.47933 10.0893 9.246 9.968 9.078C9.84667 8.91 9.62733 8.826 9.31 8.826C9.10467 8.826 8.91333 8.85867 8.736 8.924C8.55867 8.98933 8.38133 9.064 8.204 9.148V13.908C8.204 14.132 8.25067 14.2767 8.344 14.342C8.43733 14.398 8.624 14.4353 8.904 14.454V15H4.914V14.454C5.194 14.4353 5.38067 14.398 5.474 14.342C5.56733 14.2767 5.614 14.132 5.614 13.908V9.778C5.614 9.47933 5.55333 9.246 5.432 9.078C5.32 8.91 5.10533 8.826 4.788 8.826C4.57333 8.826 4.37733 8.85867 4.2 8.924C4.02267 8.98 3.84533 9.05467 3.668 9.148V13.908C3.668 14.132 3.71467 14.2767 3.808 14.342C3.91067 14.398 4.102 14.4353 4.382 14.454V15H0.308V14.454C0.588 14.4353 0.788667 14.398 0.91 14.342C1.03133 14.2767 1.092 14.132 1.092 13.908V8.994L0.322 8.518V8.126L3.248 7.314H3.724L3.668 8.742C3.92933 8.35933 4.26067 8.028 4.662 7.748C5.07267 7.45867 5.586 7.314 6.202 7.314C6.734 7.314 7.168 7.43067 7.504 7.664C7.84 7.89733 8.05467 8.266 8.148 8.77C8.4 8.39667 8.74067 8.06067 9.17 7.762C9.59933 7.46333 10.1127 7.314 10.71 7.314C11.354 7.314 11.8533 7.50533 12.208 7.888C12.5627 8.26133 12.74 8.812 12.74 9.54V13.908C12.74 14.132 12.8007 14.2767 12.922 14.342C13.0433 14.398 13.2393 14.4353 13.51 14.454V15H9.45V14.454C9.73 14.4353 9.91667 14.398 10.01 14.342C10.1033 14.2767 10.15 14.132 10.15 13.908ZM18.5514 12.452L19.9374 8.896C19.9748 8.80267 20.0028 8.728 20.0214 8.672C20.0401 8.616 20.0494 8.55533 20.0494 8.49C20.0494 8.34067 19.9841 8.23333 19.8534 8.168C19.7321 8.10267 19.4894 8.04667 19.1254 8V7.454H21.6734V8C21.4401 8.07467 21.2768 8.14933 21.1834 8.224C21.0994 8.29867 21.0248 8.41067 20.9594 8.56L17.7674 16.218C17.5061 16.834 17.2261 17.3007 16.9274 17.618C16.6288 17.9353 16.2368 18.094 15.7514 18.094C15.4808 18.094 15.2381 18.038 15.0234 17.926C14.8181 17.8233 14.6688 17.6833 14.5754 17.506V16.512C14.7528 16.5493 14.9254 16.582 15.0934 16.61C15.2614 16.638 15.4528 16.652 15.6674 16.652C16.0594 16.652 16.3674 16.5867 16.5914 16.456C16.8154 16.3347 16.9881 16.1293 17.1094 15.84L17.3334 15.35L14.1414 8.56C14.0761 8.41067 14.0014 8.29867 13.9174 8.224C13.8334 8.14933 13.6701 8.07467 13.4274 8V7.454H17.9074V8C17.5341 8.04667 17.2868 8.10267 17.1654 8.168C17.0441 8.23333 16.9834 8.34067 16.9834 8.49C16.9834 8.55533 16.9928 8.616 17.0114 8.672C17.0301 8.728 17.0534 8.798 17.0814 8.882L18.5514 12.452ZM25.8683 11.206V13.432C25.8683 13.8053 25.9849 14.0527 26.2183 14.174C26.4516 14.2953 26.8763 14.3747 27.4923 14.412V15H22.1023V14.412C22.5689 14.3653 22.8536 14.2907 22.9563 14.188C23.0683 14.076 23.1243 13.838 23.1243 13.474V6.698C23.1243 6.334 23.0683 6.10067 22.9563 5.998C22.8536 5.886 22.5689 5.80667 22.1023 5.76V5.172H26.9463C28.3089 5.172 29.3123 5.45667 29.9563 6.026C30.6096 6.59533 30.9363 7.3 30.9363 8.14C30.9363 9.10133 30.5956 9.85267 29.9143 10.394C29.2423 10.9353 28.2156 11.206 26.8343 11.206H25.8683ZM25.8683 5.83V10.478H26.1903C26.8623 10.478 27.3709 10.268 27.7163 9.848C28.0709 9.428 28.2483 8.85867 28.2483 8.14C28.2483 7.42133 28.0616 6.85667 27.6883 6.446C27.3149 6.03533 26.8156 5.83 26.1903 5.83H25.8683ZM34.7442 7.314V13.908C34.7442 14.132 34.8048 14.2767 34.9262 14.342C35.0475 14.398 35.2482 14.4353 35.5282 14.454V15H31.3842V14.454C31.6642 14.4353 31.8648 14.398 31.9862 14.342C32.1075 14.2767 32.1682 14.132 32.1682 13.908V8.994L31.3982 8.518V8.126L34.3102 7.314H34.7442ZM33.4842 6.698C33.0548 6.698 32.7188 6.56733 32.4762 6.306C32.2335 6.04467 32.1122 5.74133 32.1122 5.396C32.1122 5.05067 32.2335 4.752 32.4762 4.5C32.7188 4.23867 33.0548 4.108 33.4842 4.108C33.9042 4.108 34.2355 4.23867 34.4782 4.5C34.7302 4.752 34.8562 5.05067 34.8562 5.396C34.8562 5.74133 34.7302 6.04467 34.4782 6.306C34.2355 6.56733 33.9042 6.698 33.4842 6.698ZM39.21 5.55V7.454H40.848V8.21H39.21V12.844C39.21 13.18 39.2753 13.4273 39.406 13.586C39.546 13.7353 39.7466 13.81 40.008 13.81C40.1853 13.81 40.3533 13.782 40.512 13.726C40.68 13.6607 40.848 13.572 41.016 13.46L41.226 13.768C40.9646 14.1973 40.6333 14.5333 40.232 14.776C39.8306 15.0187 39.35 15.14 38.79 15.14C38.146 15.14 37.6186 14.9627 37.208 14.608C36.8066 14.2533 36.606 13.6653 36.606 12.844V8.21H35.808V7.748C36.368 7.54267 36.8906 7.244 37.376 6.852C37.8706 6.46 38.3 6.026 38.664 5.55H39.21ZM43.7547 10.492C43.7547 11.388 43.946 12.0973 44.3287 12.62C44.7114 13.1333 45.2527 13.39 45.9527 13.39C46.3634 13.39 46.718 13.3153 47.0167 13.166C47.3247 13.0167 47.5907 12.7833 47.8147 12.466L48.1227 12.662C47.8894 13.5113 47.4974 14.1367 46.9467 14.538C46.4054 14.9393 45.7427 15.14 44.9587 15.14C43.988 15.14 43.1714 14.8133 42.5087 14.16C41.846 13.4973 41.5147 12.5967 41.5147 11.458C41.5147 10.282 41.8647 9.29733 42.5647 8.504C43.2647 7.71067 44.1934 7.314 45.3507 7.314C46.0507 7.314 46.6527 7.45867 47.1567 7.748C47.6607 8.028 47.9127 8.476 47.9127 9.092C47.9127 9.35333 47.8474 9.57267 47.7167 9.75C47.586 9.92733 47.446 10.0487 47.2967 10.114H45.9667C45.9854 9.96467 45.9994 9.82467 46.0087 9.694C46.018 9.56333 46.0227 9.43733 46.0227 9.316C46.0227 8.91467 45.9574 8.588 45.8267 8.336C45.696 8.07467 45.4627 7.944 45.1267 7.944C44.6974 7.944 44.3614 8.19133 44.1187 8.686C43.876 9.17133 43.7547 9.77333 43.7547 10.492ZM49.2977 13.908V5.494L48.5277 5.102V4.682L51.4537 4.038H51.8877V8.714C52.1491 8.378 52.4897 8.06067 52.9097 7.762C53.3297 7.46333 53.8571 7.314 54.4917 7.314C55.1637 7.314 55.6817 7.51 56.0457 7.902C56.4191 8.28467 56.6057 8.854 56.6057 9.61V13.908C56.6057 14.132 56.6664 14.2767 56.7877 14.342C56.9091 14.398 57.1097 14.4353 57.3897 14.454V15H53.2737V14.454C53.5537 14.4353 53.7451 14.398 53.8477 14.342C53.9597 14.2767 54.0157 14.132 54.0157 13.908V9.82C54.0157 9.512 53.9504 9.274 53.8197 9.106C53.6891 8.92867 53.4417 8.84 53.0777 8.84C52.8537 8.84 52.6437 8.868 52.4477 8.924C52.2517 8.98 52.0651 9.05467 51.8877 9.148V13.908C51.8877 14.132 51.9391 14.2767 52.0417 14.342C52.1537 14.398 52.3497 14.4353 52.6297 14.454V15H48.5137V14.454C48.7937 14.4353 48.9944 14.398 49.1157 14.342C49.2371 14.2767 49.2977 14.132 49.2977 13.908ZM61.1996 8.21V13.698C61.1996 13.9967 61.2836 14.188 61.4516 14.272C61.6289 14.3467 61.9182 14.4073 62.3196 14.454V15H57.8396V14.454C58.1196 14.4353 58.3202 14.398 58.4416 14.342C58.5629 14.2767 58.6236 14.132 58.6236 13.908V8.21H57.6156V7.65L58.6236 7.384V7.118C58.6236 6.06333 58.9409 5.28867 59.5756 4.794C60.2196 4.29 60.9942 4.038 61.8996 4.038C62.6462 4.038 63.1922 4.15933 63.5376 4.402C63.8922 4.63533 64.0696 4.96667 64.0696 5.396C64.0696 5.592 64.0182 5.76933 63.9156 5.928C63.8222 6.08667 63.7009 6.20333 63.5516 6.278H62.2356C62.2542 6.18467 62.2682 6.082 62.2776 5.97C62.2962 5.858 62.3056 5.74133 62.3056 5.62C62.3056 5.37733 62.2729 5.158 62.2076 4.962C62.1516 4.75667 62.0162 4.654 61.8016 4.654C61.5962 4.654 61.4422 4.738 61.3396 4.906C61.2462 5.074 61.1996 5.31667 61.1996 5.634V7.454H62.8376V8.21H61.1996ZM67.0786 14.552C67.4986 14.552 67.7879 14.3 67.9466 13.796C68.1053 13.2827 68.1846 12.5827 68.1846 11.696C68.1846 10.5573 68.0913 9.64267 67.9046 8.952C67.7273 8.252 67.4099 7.902 66.9526 7.902C66.5326 7.902 66.2433 8.15867 66.0846 8.672C65.9259 9.176 65.8466 9.87133 65.8466 10.758C65.8466 11.8967 65.9399 12.816 66.1266 13.516C66.3133 14.2067 66.6306 14.552 67.0786 14.552ZM67.0086 15.14C65.8606 15.14 64.9226 14.7993 64.1946 14.118C63.4666 13.4273 63.1026 12.5127 63.1026 11.374C63.1026 10.2073 63.4713 9.24133 64.2086 8.476C64.9459 7.70133 65.8839 7.314 67.0226 7.314C68.1706 7.314 69.1086 7.65933 69.8366 8.35C70.5646 9.03133 70.9286 9.94133 70.9286 11.08C70.9286 12.2467 70.5599 13.2173 69.8226 13.992C69.0853 14.7573 68.1473 15.14 67.0086 15.14ZM74.8848 10.002V13.698C74.8848 13.9967 74.9688 14.188 75.1368 14.272C75.3141 14.3467 75.6035 14.4073 76.0048 14.454V15H71.5248V14.454C71.8048 14.4353 72.0055 14.398 72.1268 14.342C72.2481 14.2767 72.3088 14.132 72.3088 13.908V8.994L71.5388 8.518V8.126L74.4648 7.314H74.9408L74.8848 9.47C75.1741 8.658 75.4588 8.098 75.7388 7.79C76.0281 7.47267 76.3921 7.314 76.8308 7.314C76.9895 7.314 77.1295 7.33733 77.2508 7.384C77.3721 7.43067 77.4655 7.48667 77.5308 7.552V9.498H77.1948C76.7561 9.498 76.3408 9.526 75.9488 9.582C75.5568 9.62867 75.2021 9.76867 74.8848 10.002ZM81.3392 11.038L83.4812 9.092C83.6586 8.93333 83.7799 8.80733 83.8452 8.714C83.9106 8.61133 83.9432 8.51333 83.9432 8.42C83.9432 8.28933 83.8826 8.196 83.7612 8.14C83.6399 8.084 83.4159 8.03733 83.0892 8V7.454H86.2672V8C86.0339 8.03733 85.8239 8.08867 85.6372 8.154C85.4599 8.21933 85.2826 8.34067 85.1052 8.518L83.4952 10.03L86.5472 14.622V15H83.8592L81.3392 11.038ZM78.6512 13.908V5.494L77.8812 5.102V4.682L80.8072 4.038H81.2412V13.908C81.2412 14.132 81.3019 14.2767 81.4232 14.342C81.5446 14.398 81.7452 14.4353 82.0252 14.454V15H77.8672V14.454C78.1472 14.4353 78.3479 14.398 78.4692 14.342C78.5906 14.2767 78.6512 14.132 78.6512 13.908Z" fill="white"/>
<path d="M89.474 15.077C89.254 15.077 89.067 15 88.913 14.846C88.7663 14.6847 88.693 14.494 88.693 14.274C88.693 14.054 88.7663 13.867 88.913 13.713C89.067 13.559 89.254 13.482 89.474 13.482C89.694 13.482 89.881 13.559 90.035 13.713C90.1963 13.867 90.277 14.054 90.277 14.274C90.277 14.494 90.2 14.6847 90.046 14.846C89.892 15 89.7013 15.077 89.474 15.077ZM92.3728 15V10.809H91.2948V10.017H92.3728V9.049C92.3728 8.675 92.4278 8.35967 92.5378 8.103C92.6478 7.84633 92.7945 7.65933 92.9778 7.542C93.1612 7.42467 93.3298 7.344 93.4838 7.3C93.6452 7.256 93.8102 7.234 93.9788 7.234C94.2868 7.234 94.5435 7.27433 94.7488 7.355V8.158C94.5288 8.09933 94.3528 8.07 94.2208 8.07C94.1035 8.07 93.9972 8.081 93.9018 8.103C93.8138 8.11767 93.7185 8.158 93.6158 8.224C93.5205 8.28267 93.4435 8.38167 93.3848 8.521C93.3335 8.653 93.3078 8.82167 93.3078 9.027V10.017H94.7488V10.809H93.3078V15H92.3728ZM98.3421 15.121C97.7481 15.121 97.2787 14.956 96.9341 14.626C96.5967 14.2887 96.4281 13.7753 96.4281 13.086V10.017H97.3631V12.701C97.3631 13.2363 97.4584 13.6397 97.6491 13.911C97.8397 14.1823 98.1807 14.318 98.6721 14.318C99.1267 14.318 99.4641 14.1603 99.6841 13.845C99.9114 13.5297 100.025 13.141 100.025 12.679V10.017H100.96V15H100.025V14.087C99.8857 14.4023 99.6694 14.6553 99.3761 14.846C99.0827 15.0293 98.7381 15.121 98.3421 15.121ZM102.826 15V10.017H103.772V10.919C103.919 10.5963 104.146 10.3433 104.454 10.16C104.77 9.97667 105.129 9.885 105.532 9.885C106.141 9.885 106.607 10.061 106.929 10.413C107.252 10.7577 107.413 11.2637 107.413 11.931V15H106.478V12.349C106.478 11.7623 106.376 11.3407 106.17 11.084C105.972 10.8273 105.646 10.699 105.191 10.699C104.759 10.699 104.414 10.8457 104.157 11.139C103.901 11.4323 103.772 11.8283 103.772 12.327V15H102.826Z" fill="white"/>
</svg>
